<?xml version="1.0" standalone="no"?>
<!DOCTYPE svg PUBLIC "-//W3C//DTD SVG 20010904//EN"
 "http://www.w3.org/TR/2001/REC-SVG-20010904/DTD/svg10.dtd">
<svg version="1.0" xmlns="http://www.w3.org/2000/svg"
 width="423.000000pt" height="481.000000pt" viewBox="0 0 423.000000 481.000000"
 preserveAspectRatio="xMidYMid meet">

<g transform="translate(0.000000,481.000000) scale(0.100000,-0.100000)"
fill="#000000" stroke="none">
<path d="M1 4748 c1 -35 4 -49 6 -33 5 37 27 55 66 55 16 0 44 7 63 16 19 9
45 14 59 11 14 -2 28 0 31 4 3 5 -47 9 -110 9 l-116 0 1 -62z"/>
<path d="M1162 4768 c-8 -24 -20 -50 -29 -60 -8 -9 -16 -36 -18 -60 -4 -54
-13 -78 -31 -78 -8 0 -14 -7 -14 -16 0 -14 -3 -14 -15 -4 -11 9 -15 9 -15 1 0
-7 -23 -36 -51 -66 -45 -48 -54 -53 -81 -48 -24 5 -30 3 -26 -8 3 -8 26 -17
59 -21 30 -3 71 -9 92 -12 32 -6 37 -4 37 14 0 12 13 28 33 40 17 11 34 30 37
42 3 13 21 33 40 45 75 47 94 80 65 113 -12 13 -12 24 -4 54 10 35 13 38 39
32 16 -3 32 -1 35 4 3 6 -1 10 -9 10 -9 0 -16 9 -16 20 0 13 7 20 20 20 11 0
20 -7 20 -15 0 -24 39 -57 60 -50 14 5 23 -2 36 -30 16 -33 46 -60 56 -50 5 5
102 26 133 28 29 3 65 29 65 48 0 20 34 31 48 17 6 -6 29 -8 55 -4 34 5 46 12
50 28 5 18 12 20 79 17 40 -1 86 1 102 6 22 6 31 4 38 -9 9 -16 11 -16 25 3
10 15 25 21 49 21 41 0 43 -21 3 -30 -15 -4 -25 -14 -27 -28 -4 -23 -17 -29
-27 -12 -8 13 -51 13 -78 -2 -12 -6 -46 -12 -77 -13 -31 -1 -70 -10 -87 -19
-18 -9 -47 -16 -66 -16 -18 0 -42 -7 -53 -15 -10 -8 -29 -15 -42 -15 -12 0
-41 -12 -63 -27 -29 -19 -60 -29 -106 -34 -45 -5 -71 -13 -87 -28 -12 -11 -25
-21 -29 -21 -4 0 -16 -9 -27 -20 -11 -11 -29 -20 -39 -20 -21 0 -71 -53 -71
-75 0 -8 -10 -20 -22 -26 -12 -6 -33 -26 -47 -43 -24 -29 -60 -66 -138 -139
-18 -17 -39 -45 -48 -63 -19 -40 -31 -49 -39 -29 -8 22 1 38 34 57 24 14 30
24 30 53 0 19 -4 35 -9 35 -16 0 -61 -46 -61 -62 0 -9 -9 -18 -20 -21 -14 -3
-20 -14 -20 -31 0 -26 -17 -65 -34 -77 -5 -4 -15 -24 -22 -45 -12 -35 -11 -40
6 -59 18 -19 27 -45 16 -45 -19 0 -76 34 -76 45 0 9 -10 15 -25 15 -18 0 -25
-5 -25 -20 0 -15 7 -20 25 -20 30 0 33 -15 6 -30 -27 -14 -31 -13 -31 10 0 11
-6 20 -14 20 -19 0 -28 40 -10 47 12 4 12 8 2 20 -10 12 -9 18 5 28 9 7 17 17
17 23 0 7 18 15 40 18 30 5 40 11 40 25 0 24 -25 24 -42 0 -7 -10 -23 -21 -35
-25 -19 -6 -23 -4 -23 12 0 11 7 25 15 32 20 17 19 27 -5 33 -20 5 -27 31 -11
42 5 3 17 -2 25 -11 12 -12 26 -14 56 -9 26 4 46 3 54 -4 11 -10 17 -5 30 20
9 18 16 40 16 50 0 12 10 21 28 25 48 10 54 14 50 31 -2 12 -14 19 -38 21 -19
1 -65 9 -102 17 -37 8 -95 15 -130 15 -35 0 -101 4 -148 10 -47 5 -182 16
-300 25 -118 8 -227 17 -242 20 l-28 5 0 -235 c0 -219 1 -234 19 -240 10 -3
25 -3 34 1 20 7 32 37 17 42 -8 3 -7 8 1 18 9 11 9 39 0 121 -18 156 -22 154
249 122 47 -6 89 -14 94 -19 4 -4 3 -62 -3 -129 -12 -124 -7 -161 24 -161 23
0 27 18 30 119 3 110 13 171 28 171 6 0 8 -24 4 -67 -6 -61 -1 -116 19 -195 5
-24 2 -29 -22 -39 l-29 -12 50 -13 c56 -16 203 -25 210 -13 3 4 14 5 25 2 11
-3 26 -1 33 4 6 6 25 13 41 17 l29 7 -26 -43 c-29 -48 -29 -48 -147 -29 -36 5
-135 15 -220 21 -85 6 -195 15 -245 20 -50 5 -118 12 -153 15 l-62 6 0 -143 0
-143 20 38 c11 21 23 57 26 81 10 73 4 71 171 58 155 -13 271 -30 288 -43 6
-4 8 -34 5 -71 -4 -53 -8 -65 -27 -73 -13 -5 -23 -13 -23 -17 0 -5 -16 -8 -36
-8 -31 0 -35 -2 -24 -15 16 -19 54 -19 70 0 15 18 51 16 57 -1 3 -10 -214
-124 -237 -124 -14 0 -13 12 5 37 14 20 13 23 -7 37 -31 22 -32 21 -47 -19
-10 -28 -10 -39 -1 -50 14 -17 -2 -45 -25 -45 -8 0 -42 -16 -77 -36 -35 -19
-80 -42 -100 -51 -37 -16 -38 -17 -38 -69 0 -47 2 -52 20 -47 11 3 23 9 26 14
10 16 24 9 24 -11 0 -13 -7 -20 -18 -20 -36 0 -52 -32 -52 -102 0 -55 4 -68
23 -86 13 -12 28 -22 35 -22 6 0 31 -17 55 -37 41 -35 71 -55 134 -91 13 -8
38 -28 56 -45 18 -18 75 -63 127 -101 52 -38 100 -74 105 -80 6 -6 26 -20 45
-30 19 -11 37 -22 40 -25 7 -9 79 -62 120 -89 19 -13 44 -33 55 -43 11 -11 31
-27 44 -37 25 -19 22 -42 -5 -42 -9 0 -39 20 -67 45 -29 25 -55 45 -60 45 -5
0 -34 22 -65 49 -59 50 -238 181 -248 181 -3 0 -17 11 -32 25 -58 53 -109 92
-160 124 -28 18 -52 37 -52 42 0 5 -8 13 -17 16 -18 6 -64 40 -94 68 -37 35
-39 24 -39 -259 l0 -274 38 -6 c20 -3 80 -10 132 -16 99 -10 375 -43 517 -61
78 -10 82 -12 72 -31 -9 -17 -17 -19 -52 -14 -113 16 -212 28 -312 36 -60 5
-148 16 -195 25 -47 8 -99 14 -117 13 -18 -1 -35 1 -39 5 -4 4 -16 7 -26 7
-14 0 -18 -8 -18 -35 0 -27 4 -35 18 -35 26 0 365 -40 382 -45 14 -4 100 -14
300 -35 41 -4 91 -12 110 -17 31 -8 35 -13 38 -44 3 -33 -16 -132 -32 -171 -8
-17 -1 -20 60 -33 l32 -6 4 105 c5 135 6 137 115 127 86 -8 113 -21 113 -53 0
-72 130 -355 175 -380 17 -10 23 -37 30 -141 6 -92 2 -115 -19 -98 -7 6 -67
12 -135 15 -74 3 -128 9 -137 17 -9 7 -51 12 -109 13 -69 1 -95 4 -95 14 0 15
-15 15 -40 -1 -15 -9 -23 -9 -28 -1 -9 15 -121 33 -302 48 -113 10 -228 26
-295 42 -33 7 -77 14 -97 14 -20 0 -40 5 -43 10 -4 7 -13 7 -25 0 -19 -10 -20
-23 -19 -220 0 -175 3 -210 15 -210 8 0 14 -4 14 -10 0 -5 -7 -10 -15 -10 -13
0 -15 -34 -15 -250 0 -233 1 -249 18 -243 9 3 22 10 29 15 7 5 41 16 78 23 95
20 340 119 380 154 27 23 127 67 195 84 52 14 107 35 140 56 8 5 40 21 70 37
30 15 69 38 85 50 17 12 49 30 72 40 40 17 48 28 67 87 3 10 15 17 32 17 14 0
43 13 63 28 50 40 99 67 106 60 4 -4 -2 -24 -13 -45 -23 -43 -42 -102 -42
-126 0 -9 -5 -17 -11 -17 -12 0 -8 46 6 83 13 31 -23 19 -51 -18 -17 -23 -32
-34 -42 -30 -10 3 -26 -6 -44 -25 -15 -17 -42 -37 -60 -45 -18 -7 -48 -28 -67
-45 -18 -17 -47 -34 -63 -37 -16 -3 -32 -12 -35 -19 -3 -8 -25 -23 -49 -33
-24 -11 -44 -24 -44 -30 0 -15 70 -2 108 20 36 21 52 24 52 10 0 -13 -58 -45
-119 -64 -30 -10 -69 -28 -86 -41 -17 -13 -53 -35 -81 -48 -42 -21 -52 -22
-74 -11 -39 20 -101 15 -174 -12 -36 -14 -74 -29 -83 -34 -91 -47 -146 -72
-192 -87 -45 -14 -51 -19 -35 -26 12 -5 5 -7 -23 -3 -45 5 -76 -2 -67 -16 3
-5 -6 -20 -20 -33 l-26 -23 0 -322 0 -321 2115 0 2115 0 0 525 c0 450 -2 525
-14 525 -8 0 -18 -4 -21 -10 -3 -5 -1 -10 4 -10 6 0 11 -4 11 -10 0 -15 -16
-12 -34 5 -8 8 -25 15 -38 15 -17 0 -19 3 -9 9 21 13 -22 24 -60 16 -22 -5
-29 -4 -25 4 5 7 -2 11 -17 11 -14 0 -27 7 -31 15 -3 8 -17 15 -31 15 -14 0
-25 5 -25 10 0 6 -25 10 -57 9 -56 -1 -215 36 -286 66 -27 11 -29 15 -14 21
10 3 29 1 43 -6 13 -8 27 -11 30 -7 8 8 -43 33 -86 42 -19 4 -48 13 -65 20
-16 7 -53 18 -81 25 -40 9 -65 24 -110 66 -57 53 -59 53 -64 30 l-5 -25 -82
51 c-57 35 -83 57 -83 70 0 10 -6 20 -12 22 -85 24 -125 39 -140 53 -19 17
-59 20 -94 9 -18 -7 -22 -2 -32 36 -27 103 -25 119 14 183 20 33 52 87 70 120
l33 60 48 -2 c52 -1 211 -19 308 -33 61 -10 78 -12 245 -30 187 -20 265 -32
278 -43 22 -17 1 -146 -30 -187 l-20 -25 28 -22 c27 -21 91 -40 101 -29 3 3 0
19 -7 36 -12 29 -11 48 7 173 3 21 12 41 19 44 8 3 76 -2 152 -11 186 -22 182
-22 182 13 0 17 -5 33 -11 37 -6 4 -67 10 -134 15 -133 9 -175 20 -175 44 0
17 25 19 85 6 22 -5 84 -12 138 -16 l97 -7 0 1056 0 1056 -23 4 c-28 6 -311
33 -432 41 -49 3 -130 10 -180 16 -218 23 -429 37 -450 29 -15 -6 -27 -4 -34
3 -7 7 -26 17 -44 23 -18 6 -34 19 -36 29 -3 16 3 17 69 11 87 -9 361 -31 565
-46 83 -6 176 -15 208 -21 31 -5 103 -12 160 -15 56 -2 123 -6 150 -9 l47 -4
0 355 0 354 -760 -2 c-663 -3 -762 -5 -771 -18 -9 -13 -10 -12 -5 3 5 15 -2
17 -44 17 -43 0 -50 -3 -50 -19 0 -11 -9 -23 -20 -26 -20 -6 -28 -35 -10 -35
20 0 9 -35 -15 -46 -26 -13 -36 -7 -48 29 -7 18 -47 23 -63 7 -6 -6 -31 -7
-69 -1 -44 6 -51 9 -25 10 44 2 79 21 39 21 -35 0 -56 24 -39 45 11 13 -55 15
-581 15 l-594 0 -13 -42z m65 10 c-3 -8 -6 -5 -6 6 -1 11 2 17 5 13 3 -3 4
-12 1 -19z m417 -49 c6 -5 2 -11 -7 -15 -18 -6 -47 11 -47 28 0 10 39 1 54
-13z m-64 -3 c0 -16 -18 -31 -27 -22 -8 8 5 36 17 36 5 0 10 -6 10 -14z m1160
-11 c0 -8 -7 -15 -15 -15 -8 0 -15 7 -15 15 0 8 7 15 15 15 8 0 15 -7 15 -15z
m-1215 -15 c0 -8 -10 -16 -22 -18 -22 -3 -32 16 -16 32 12 11 38 2 38 -14z
m725 -4 c0 -16 -18 -31 -27 -22 -8 8 5 36 17 36 5 0 10 -6 10 -14z m414 -38
c5 -9 7 -20 3 -25 -11 -10 -41 11 -45 31 -5 23 26 18 42 -6z m-964 -58 c0 -5
-5 -10 -11 -10 -5 0 -7 5 -4 10 3 6 8 10 11 10 2 0 4 -4 4 -10z m-565 -40 c3
-5 1 -10 -4 -10 -6 0 -11 5 -11 10 0 6 2 10 4 10 3 0 8 -4 11 -10z m1665 -10
c0 -5 -6 -10 -14 -10 -8 0 -18 5 -21 10 -3 6 3 10 14 10 12 0 21 -4 21 -10z
m-2197 -376 c-3 -8 -9 -14 -13 -14 -14 0 -22 20 -16 37 5 12 9 13 21 3 7 -6
11 -18 8 -26z m75 -14 c2 -27 -4 -60 -17 -89 -11 -26 -17 -57 -14 -72 3 -15 0
-29 -5 -33 -6 -4 -11 14 -14 45 -1 28 0 53 5 56 4 2 7 32 7 67 0 34 3 66 7 70
15 15 28 -3 31 -44z m-33 -240 c3 -5 1 -10 -4 -10 -6 0 -11 5 -11 10 0 6 2 10
4 10 3 0 8 -4 11 -10z m135 -148 c0 -24 -35 -56 -54 -49 -8 3 -20 -1 -26 -9
-7 -8 -19 -14 -28 -14 -9 0 -1 15 24 44 42 47 84 61 84 28z m-150 -108 c0 -8
-4 -12 -10 -9 -5 3 -10 10 -10 16 0 5 5 9 10 9 6 0 10 -7 10 -16z m10 -44 c0
-13 -7 -20 -20 -20 -22 0 -23 1 -14 24 9 23 34 20 34 -4z m2815 -10 c39 -6
113 -14 165 -16 52 -3 136 -11 185 -19 50 -9 136 -18 193 -22 74 -4 100 -9 92
-17 -14 -14 -142 -10 -330 10 -80 9 -205 21 -277 28 -137 12 -166 23 -144 50
9 10 18 12 29 6 10 -4 49 -13 87 -20z m495 -189 c0 -13 -16 -22 -56 -31 -42
-10 -43 -5 -1 20 35 22 57 26 57 11z m-3560 -61 c0 -5 -5 -10 -11 -10 -5 0 -7
5 -4 10 3 6 8 10 11 10 2 0 4 -4 4 -10z m3396 -15 c-11 -8 -27 -15 -35 -15
-11 0 -10 4 5 15 10 8 26 14 34 14 11 0 10 -3 -4 -14z m-3443 -11 c9 -10 -4
-34 -19 -34 -8 0 -14 6 -14 13 0 22 19 35 33 21z m3387 -13 c0 -4 -33 -23 -72
-41 -40 -18 -100 -45 -133 -61 -33 -15 -84 -37 -114 -49 -30 -11 -63 -27 -75
-35 -25 -18 -59 -20 -54 -3 4 12 9 15 78 46 112 51 137 62 146 62 10 0 70 26
159 70 43 21 65 25 65 11z m-3519 -78 c-6 -22 -21 -49 -34 -61 l-23 -22 -37
26 c-41 27 -46 42 -19 50 9 3 39 16 67 29 27 13 51 22 53 21 2 -2 -1 -22 -7
-43z m109 7 c0 -5 -2 -10 -4 -10 -3 0 -8 5 -11 10 -3 6 -1 10 4 10 6 0 11 -4
11 -10z m400 -80 c0 -5 -9 -10 -20 -10 -11 0 -20 5 -20 10 0 6 9 10 20 10 11
0 20 -4 20 -10z m85 -190 c0 -23 -29 -50 -41 -37 -10 10 17 68 30 64 6 -2 11
-14 11 -27z m3175 -82 c0 -19 -2 -20 -10 -8 -13 19 -13 30 0 30 6 0 10 -10 10
-22z m-3203 -75 c-2 -16 -4 -3 -4 27 0 30 2 43 4 28 2 -16 2 -40 0 -55z m3180
-80 c-3 -10 -5 -2 -5 17 0 19 2 27 5 18 2 -10 2 -26 0 -35z m-3157 -15 c0 -13
7 -32 15 -42 18 -24 20 -49 3 -44 -7 3 -16 18 -19 34 -4 16 -11 39 -14 52 -5
14 -3 22 4 22 6 0 11 -10 11 -22z m1330 -121 c19 0 45 3 56 7 18 6 29 -2 69
-55 38 -51 45 -66 36 -78 -37 -51 -33 -74 28 -180 20 -33 20 -51 0 -51 -5 0
-9 6 -9 14 0 22 -19 29 -37 15 -13 -11 -18 -10 -34 10 -11 13 -22 35 -25 50
-3 14 -11 40 -19 56 -8 17 -19 48 -24 70 -6 22 -17 49 -25 60 -9 11 -16 28
-16 38 0 9 -6 17 -13 17 -19 0 -28 -11 -19 -24 3 -6 8 -28 9 -48 1 -20 3 -40
4 -45 5 -27 -3 -43 -21 -43 -15 0 -20 7 -20 25 0 35 -15 31 -30 -7 -55 -147
-62 -158 -99 -158 -15 0 -32 -5 -39 -12 -19 -19 -15 10 12 93 26 78 22 101
-15 92 -18 -5 -20 -2 -17 28 2 26 8 35 26 37 12 2 29 16 37 33 9 16 20 29 25
29 5 0 21 11 35 24 23 21 30 23 58 13 18 -5 48 -10 67 -10z m1807 -19 c-3 -8
-6 -5 -6 6 -1 11 2 17 5 13 3 -3 4 -12 1 -19z m-33 -166 c-9 -53 -20 -119 -23
-147 -4 -27 -10 -56 -14 -63 -5 -7 -8 -44 -8 -82 0 -38 -4 -72 -9 -75 -6 -4
-10 -15 -10 -26 0 -10 -6 -19 -14 -19 -18 0 -96 51 -96 62 0 4 -5 8 -11 8 -12
0 -98 60 -134 93 -24 22 -58 48 -105 82 -91 64 -107 75 -130 94 -20 16 -22 21
-8 21 20 0 224 -145 283 -201 22 -21 57 -45 78 -54 20 -8 37 -20 37 -25 0 -6
9 -10 20 -10 11 0 20 -4 20 -10 0 -11 43 -14 53 -3 4 3 2 12 -4 19 -7 9 -7 19
2 35 6 13 18 70 25 128 21 160 29 204 42 228 7 12 12 32 13 45 0 13 3 17 6 10
3 -7 -3 -56 -13 -110z m-724 93 c0 -9 11 -20 25 -25 14 -5 28 -17 31 -25 4 -8
11 -15 18 -15 12 -1 66 -45 66 -55 0 -15 -30 -2 -56 25 -16 16 -35 30 -41 30
-7 0 -18 9 -25 20 -7 11 -21 20 -30 20 -20 0 -21 1 -12 24 8 20 24 21 24 1z
m-2219 -141 c20 -33 21 -40 10 -68 -7 -17 -16 -44 -20 -59 l-6 -29 -19 21
c-19 21 -21 38 -15 123 5 58 19 61 50 12z m1109 26 c0 -5 -4 -10 -10 -10 -5 0
-10 5 -10 10 0 6 5 10 10 10 6 0 10 -4 10 -10z m1035 0 c3 -5 1 -10 -4 -10 -6
0 -11 5 -11 10 0 6 2 10 4 10 3 0 8 -4 11 -10z m-1238 -126 c-2 -28 -6 -34
-22 -32 -15 2 -20 10 -18 32 2 29 20 49 35 40 4 -3 7 -21 5 -40z m1683 -124
c0 -5 -2 -10 -4 -10 -3 0 -8 5 -11 10 -3 6 -1 10 4 10 6 0 11 -4 11 -10z
m-376 -101 c65 -11 239 -32 419 -51 64 -6 117 -14 117 -17 -1 -25 -20 -28
-120 -19 -350 30 -610 60 -627 71 -55 35 52 43 211 16z m-2474 -469 c0 -5 -4
-10 -10 -10 -5 0 -10 5 -10 10 0 6 5 10 10 10 6 0 10 -4 10 -10z m-270 -20 c0
-5 -8 -10 -17 -10 -15 0 -16 2 -3 10 19 12 20 12 20 0z m80 -10 c0 -5 -2 -10
-4 -10 -3 0 -8 5 -11 10 -3 6 -1 10 4 10 6 0 11 -4 11 -10z m-46 -25 c7 -18
-2 -45 -15 -45 -13 0 -22 27 -15 45 3 8 10 15 15 15 5 0 11 -7 15 -15z m2406
-14 c0 -5 19 -18 43 -30 78 -38 83 -46 96 -153 13 -114 2 -174 -17 -87 -36
173 -30 160 -93 214 -61 51 -70 65 -44 65 8 0 15 -4 15 -9z m-2330 -71 c0 -11
-4 -20 -10 -20 -5 0 -10 2 -10 4 0 2 -3 11 -6 20 -4 11 -1 16 10 16 9 0 16 -8
16 -20z m250 -15 c0 -19 -4 -35 -10 -35 -11 0 -14 53 -3 63 11 12 13 8 13 -28z
m74 19 c10 -26 7 -34 -13 -34 -21 0 -31 17 -23 38 6 17 29 15 36 -4z m-704 -7
c0 -19 -21 -37 -42 -37 -21 0 -25 35 -5 43 23 10 47 7 47 -6z m80 -21 c0 -8
-5 -18 -11 -22 -14 -8 -33 11 -25 25 10 16 36 13 36 -3z m70 -6 c0 -5 -2 -10
-4 -10 -3 0 -8 5 -11 10 -3 6 -1 10 4 10 6 0 11 -4 11 -10z m160 0 c0 -5 14
-10 31 -10 39 0 34 -19 -9 -37 -31 -13 -32 -12 -32 12 0 14 -4 25 -10 25 -5 0
-10 5 -10 10 0 6 7 10 15 10 8 0 15 -4 15 -10z m-85 -10 c4 -6 1 -17 -5 -26
-14 -16 -40 -2 -40 22 0 16 36 19 45 4z m215 -15 c10 -12 10 -15 -4 -15 -9 0
-16 7 -16 15 0 8 2 15 4 15 2 0 9 -7 16 -15z m56 -10 l29 -15 -32 0 c-23 0
-33 5 -33 15 0 18 1 18 36 0z m284 -25 c13 -24 23 -25 44 -5 18 19 26 19 26 1
0 -24 -29 -41 -49 -29 -10 6 -29 9 -44 6 -30 -6 -32 -1 -17 28 14 24 27 24 40
-1z m-860 -11 c0 -6 -4 -7 -10 -4 -5 3 -10 11 -10 16 0 6 5 7 10 4 6 -3 10
-11 10 -16z m1297 -41 l1 -52 -19 23 c-23 28 -24 45 -3 65 8 9 16 16 18 16 1
0 3 -23 3 -52z m-1031 5 c-11 -11 -19 6 -11 24 8 17 8 17 12 0 3 -10 2 -21 -1
-24z m234 11 c0 -19 -50 -38 -63 -25 -15 15 -1 39 25 43 29 5 38 1 38 -18z
m475 16 c3 -5 -1 -10 -9 -10 -9 0 -16 5 -16 10 0 6 4 10 9 10 6 0 13 -4 16
-10z m-418 -26 c-9 -9 -28 6 -21 18 4 6 10 6 17 -1 6 -6 8 -13 4 -17z m77 -15
c-6 -11 -64 -12 -64 -1 0 4 10 12 23 18 23 11 51 -1 41 -17z m-247 -11 c-3 -8
-6 -5 -6 6 -1 11 2 17 5 13 3 -3 4 -12 1 -19z m383 13 c0 -12 -20 -25 -27 -18
-7 7 6 27 18 27 5 0 9 -4 9 -9z m-66 -56 c3 -9 -3 -19 -15 -26 -26 -14 -34 -6
-19 20 13 25 26 27 34 6z m146 -5 c0 -13 -5 -18 -15 -14 -16 7 -19 17 -8 27
12 13 23 7 23 -13z m-80 -5 c0 -8 -7 -15 -15 -15 -16 0 -20 12 -8 23 11 12 23
8 23 -8z m-730 -25 c0 -5 -4 -10 -10 -10 -5 0 -10 5 -10 10 0 6 5 10 10 10 6
0 10 -4 10 -10z m490 0 c0 -5 -7 -10 -15 -10 -8 0 -15 5 -15 10 0 6 7 10 15
10 8 0 15 -4 15 -10z m2369 -124 c-9 -8 -10 -7 -5 7 3 10 7 26 7 35 1 9 4 6 6
-7 3 -13 -1 -28 -8 -35z m-2689 34 c0 -5 -4 -10 -10 -10 -5 0 -10 5 -10 10 0
6 5 10 10 10 6 0 10 -4 10 -10z m458 -11 c-2 -6 -8 -10 -13 -10 -5 0 -11 4
-13 10 -2 6 4 11 13 11 9 0 15 -5 13 -11z m3175 4 c-7 -2 -21 -2 -30 0 -10 3
-4 5 12 5 17 0 24 -2 18 -5z m-3573 -99 c0 -8 -5 -12 -10 -9 -6 4 -8 11 -5 16
9 14 15 11 15 -7z m2577 -106 c-3 -8 -6 -5 -6 6 -1 11 2 17 5 13 3 -3 4 -12 1
-19z m-11 -50 c-6 -31 -25 -62 -33 -54 -2 2 1 22 8 45 14 48 34 56 25 9z
m-2821 -158 c-3 -5 -13 -10 -21 -10 -8 0 -14 5 -14 10 0 6 9 10 21 10 11 0 17
-4 14 -10z"/>
<path d="M266 4725 c4 -8 10 -15 15 -15 5 0 9 -9 9 -19 0 -11 6 -26 13 -33 14
-15 78 -112 96 -146 7 -12 9 -27 6 -32 -9 -14 43 -36 56 -23 10 10 -29 91 -56
113 -8 7 -15 18 -15 24 0 14 -60 99 -73 105 -5 2 -17 12 -25 22 -20 23 -34 25
-26 4z"/>
<path d="M0 4583 c0 -89 1 -93 22 -93 17 0 19 3 10 12 -7 7 -12 40 -12 78 0
36 -5 72 -10 80 -7 10 -10 -14 -10 -77z"/>
<path d="M1353 4607 c-36 -25 -41 -37 -15 -37 24 0 62 28 62 46 0 18 -8 17
-47 -9z"/>
<path d="M1208 4515 c-21 -28 -23 -55 -5 -55 13 0 47 50 47 69 0 19 -24 11
-42 -14z"/>
<path d="M625 4499 c-10 -15 1 -23 20 -15 9 3 13 10 10 16 -8 13 -22 13 -30
-1z"/>
<path d="M617 4464 c-9 -10 2 -24 18 -24 9 0 12 6 9 15 -6 16 -17 19 -27 9z"/>
<path d="M714 4448 l-19 -21 34 7 c42 8 50 14 31 26 -21 14 -25 13 -46 -12z"/>
<path d="M1123 4400 c-3 -11 -9 -20 -14 -20 -5 0 -9 -10 -9 -22 0 -21 1 -21
30 7 17 16 30 35 30 42 0 21 -31 15 -37 -7z"/>
<path d="M772 4054 c-18 -19 -7 -46 15 -42 22 4 32 58 11 58 -7 -1 -19 -8 -26
-16z"/>
<path d="M405 3710 c3 -6 12 -10 20 -10 7 0 16 -8 19 -17 7 -17 -9 -33 -31
-33 -7 0 -13 -4 -13 -10 0 -5 6 -10 14 -10 8 0 21 -3 30 -6 12 -5 16 0 16 18
0 13 5 29 12 36 16 16 2 28 -40 36 -21 3 -31 2 -27 -4z"/>
<path d="M1 3554 c0 -11 3 -14 6 -6 3 7 2 16 -1 19 -3 4 -6 -2 -5 -13z"/>
<path d="M313 3559 c9 -5 17 -17 17 -24 0 -17 16 -20 26 -4 3 6 17 8 31 4 18
-4 24 -2 20 7 -2 8 -16 12 -35 10 -18 -2 -32 1 -32 7 0 6 -10 11 -22 11 -21
-1 -21 -2 -5 -11z"/>
<path d="M25 3380 c-18 -8 -17 -9 8 -9 16 -1 26 3 22 9 -3 6 -7 10 -8 9 -1 0
-11 -4 -22 -9z"/>
<path d="M1068 1613 c6 -2 18 -2 25 0 6 3 1 5 -13 5 -14 0 -19 -2 -12 -5z"/>
<path d="M3955 1260 c28 -12 63 -12 70 0 4 6 -12 10 -42 9 -36 0 -43 -3 -28
-9z"/>
<path d="M4103 1243 c9 -2 23 -2 30 0 6 3 -1 5 -18 5 -16 0 -22 -2 -12 -5z"/>
<path d="M3832 1228 c-9 -9 -5 -15 20 -25 22 -10 35 -10 42 -3 8 8 4 12 -12
16 -12 4 -22 10 -22 15 0 13 -14 11 -28 -3z"/>
<path d="M3945 1210 c-3 -5 0 -10 7 -10 7 0 25 -6 40 -14 26 -14 38 -12 38 6
0 4 -7 8 -15 8 -8 0 -15 5 -15 10 0 6 -11 10 -24 10 -14 0 -28 -4 -31 -10z"/>
<path d="M4083 1176 c6 -16 -71 -30 -88 -16 -17 14 -95 24 -95 12 0 -5 10 -12
23 -15 12 -2 42 -12 67 -20 62 -22 168 -53 208 -62 l32 -7 0 42 0 41 -62 -7
c-62 -7 -63 -7 -45 13 24 27 22 33 -14 33 -22 0 -30 -4 -26 -14z"/>
<path d="M718 980 c-9 -6 -44 -13 -77 -16 -75 -8 -95 -26 -53 -48 40 -21 98
-10 143 25 20 16 42 29 48 29 6 0 11 5 11 10 0 13 -50 12 -72 0z"/>
<path d="M0 705 c1 -26 2 -28 11 -12 8 14 8 22 0 30 -8 8 -11 3 -11 -18z"/>
</g>
</svg>
